<svg xmlns="http://www.w3.org/2000/svg" viewBox="0 0 43 49" fill="none">
  <path
    d="M40.88 10.62 23.386.518a3.967 3.967 0 0 0-3.917 0L1.964 10.621A3.945 3.945 0 0 0 0 14.023v20.196a3.944 3.944 0 0 0 1.964 3.402l17.494 10.07a3.915 3.915 0 0 0 3.916 0l17.495-10.07a3.944 3.944 0 0 0 1.964-3.402V14.022a3.944 3.944 0 0 0-1.953-3.401Zm-1.723 23.6a.246.246 0 0 1-.118.212L21.545 44.53a.24.24 0 0 1-.246 0L3.804 34.432a.246.246 0 0 1-.117-.213V14.022a.246.246 0 0 1 .117-.212L21.3 3.712a.24.24 0 0 1 .246 0L39.039 13.81a.246.246 0 0 1 .118.213v20.196Z"
    fill="#fff"></path>
  <path
    d="m26.877 19.114-1.433.755v4.14l1.808-.951 4.039 2.12v3.072l-3.654-1.925a.75.75 0 0 0-.335-.09h-.045a.75.75 0 0 0-.336.09l-3.653 1.925V15.214a.805.805 0 0 0-.386-.688.722.722 0 0 0-.42-.112.782.782 0 0 0-.408.09l-6.495 3.43-6.501-3.43a.8.8 0 0 0-.784 0 .777.777 0 0 0-.391.688v10.003l7.329 3.877a.805.805 0 0 0 .75 0l1.443-.76v-4.14l-1.813.995-4.04-2.12v-3.072l3.654 1.925a.749.749 0 0 0 .336.09h.04a.75.75 0 0 0 .335-.09l3.653-1.925V33a.805.805 0 0 0 .386.688c.13.075.276.113.425.112.14.007.28-.024.403-.09l6.501-3.43 6.496 3.43a.811.811 0 0 0 .374.095c.145 0 .286-.04.409-.117a.777.777 0 0 0 .391-.688V22.99l-7.329-3.876a.805.805 0 0 0-.75 0Z"
    fill="#fff"></path>
</svg>
